<svg xmlns="http://www.w3.org/2000/svg" xmlns:xlink="http://www.w3.org/1999/xlink" width="259" height="48" viewBox="0 0 259 48">
  <defs>
    <clipPath id="clip-path">
      <rect id="Rectangle_2964" data-name="Rectangle 2964" width="259" height="48" transform="translate(14770 9162)" fill="#170c3a"/>
    </clipPath>
  </defs>
  <g id="Mask_Group_35" data-name="Mask Group 35" transform="translate(-14770 -9162)" clip-path="url(#clip-path)">
    <g id="Group_366" data-name="Group 366" transform="translate(14776.995 9166.396)">
      <g id="Group_365" data-name="Group 365" transform="translate(0.005 -0.001)">
        <g id="Group_364" data-name="Group 364" transform="translate(0 0)">
          <g id="Group_363" data-name="Group 363">
            <g id="Group_362" data-name="Group 362">
              <g id="Group_361" data-name="Group 361">
                <g id="Group_348" data-name="Group 348">
                  <g id="Group_347" data-name="Group 347" transform="translate(43.46 3.057)">
                    <path id="Path_734" data-name="Path 734" d="M107.025,164.477a10.025,10.025,0,0,1,7.5,3.356,11.959,11.959,0,0,1,3.2,8.613,12.5,12.5,0,0,1-3.287,8.813,9.949,9.949,0,0,1-7.471,3.551,8.541,8.541,0,0,1-6.95-3.462v2.409a.7.7,0,0,1-.7.7H94.141a.7.7,0,0,1-.7-.7V156.635a.7.7,0,0,1,.7-.7h5.17a.7.7,0,0,1,.7.7v8.5a1.075,1.075,0,0,0,1.692.879A9.213,9.213,0,0,1,107.025,164.477Zm-7.1,12.212a6.854,6.854,0,0,0,1.6,4.692A4.988,4.988,0,0,0,105.4,183.2a5.332,5.332,0,0,0,3.99-1.819,6.525,6.525,0,0,0,1.706-4.667,7.058,7.058,0,0,0-1.663-4.78,5.1,5.1,0,0,0-3.989-1.925,4.911,4.911,0,0,0-3.92,1.907,7.13,7.13,0,0,0-1.6,4.773Z" transform="translate(-93.438 -155.933)" fill="#170c3a"/>
                    <path id="Path_735" data-name="Path 735" d="M152.788,179a11.68,11.68,0,0,1-3.551,8.638,13.1,13.1,0,0,1-17.839,0,12.305,12.305,0,0,1,0-17.294,13.033,13.033,0,0,1,17.839,0A11.742,11.742,0,0,1,152.788,179Zm-18.323,0a6.741,6.741,0,0,0,1.644,4.71,5.779,5.779,0,0,0,8.169.249c.086-.08.169-.163.249-.249A6.743,6.743,0,0,0,146.17,179a6.841,6.841,0,0,0-1.644-4.74,5.739,5.739,0,0,0-8.109-.308c-.107.1-.21.2-.309.309A6.878,6.878,0,0,0,134.465,179Z" transform="translate(-100.824 -158.271)" fill="#170c3a"/>
                    <path id="Path_736" data-name="Path 736" d="M181.773,183.442a6.866,6.866,0,0,1-2.565,5.586,9.914,9.914,0,0,1-6.511,2.1,17.461,17.461,0,0,1-5.483-.941,16.165,16.165,0,0,1-4.773-2.5.48.48,0,0,1-.094-.653l2.108-3a.9.9,0,0,1,1.26-.214l.009.006a12.339,12.339,0,0,0,7.1,2.308,3.562,3.562,0,0,0,2.013-.5,1.553,1.553,0,0,0,.747-1.336,1.947,1.947,0,0,0-1.029-1.538,11.88,11.88,0,0,0-2.979-1.316c-1.3-.408-2.3-.762-2.98-1.054a16.647,16.647,0,0,1-2.346-1.27,5.443,5.443,0,0,1-2.672-4.93,6.469,6.469,0,0,1,2.628-5.325A10.687,10.687,0,0,1,173,166.807a14.593,14.593,0,0,1,7.955,2.56.478.478,0,0,1,.157.634l-1.769,3.161a.921.921,0,0,1-1.26.331l-.019-.012a10.277,10.277,0,0,0-5.307-1.586q-3.046,0-3.046,1.668a1.6,1.6,0,0,0,.965,1.449,19.748,19.748,0,0,0,3.2,1.23c1.493.463,2.547.828,3.181,1.072a16.258,16.258,0,0,1,2.258,1.161A5.346,5.346,0,0,1,181.773,183.442Z" transform="translate(-108.214 -158.263)" fill="#170c3a"/>
                    <path id="Path_737" data-name="Path 737" d="M209.77,183.445a6.866,6.866,0,0,1-2.565,5.586,9.91,9.91,0,0,1-6.511,2.1,17.466,17.466,0,0,1-5.483-.941,16.168,16.168,0,0,1-4.773-2.5.48.48,0,0,1-.094-.653l2.108-3a.9.9,0,0,1,1.26-.214l.009.006a12.338,12.338,0,0,0,7.1,2.308,3.561,3.561,0,0,0,2.013-.5,1.555,1.555,0,0,0,.747-1.336,1.949,1.949,0,0,0-1.029-1.538,11.9,11.9,0,0,0-2.98-1.316c-1.3-.408-2.3-.762-2.979-1.054a16.622,16.622,0,0,1-2.347-1.27,5.444,5.444,0,0,1-2.672-4.93,6.47,6.47,0,0,1,2.628-5.325A10.687,10.687,0,0,1,201,166.81a14.6,14.6,0,0,1,7.957,2.559.477.477,0,0,1,.156.634l-1.768,3.161a.921.921,0,0,1-1.26.331l-.02-.012a10.274,10.274,0,0,0-5.306-1.586q-3.046,0-3.047,1.668a1.6,1.6,0,0,0,.966,1.449,19.75,19.75,0,0,0,3.2,1.23c1.493.463,2.547.828,3.18,1.072a16.25,16.25,0,0,1,2.257,1.161A5.329,5.329,0,0,1,209.77,183.445Z" transform="translate(-114.224 -158.266)" fill="#170c3a"/>
                    <path id="Path_738" data-name="Path 738" d="M239.711,190.791h-4.874a.841.841,0,0,1-.84-.841v-2.007a7.744,7.744,0,0,1-6.292,3.2,9.339,9.339,0,0,1-6.292-2.17,7.227,7.227,0,0,1-2.539-5.783,6.127,6.127,0,0,1,2.628-5.417,12.581,12.581,0,0,1,7.189-1.8H233.6v-.132q0-3.773-3.989-3.769a10.808,10.808,0,0,0-3.619.677,12.447,12.447,0,0,0-2.529,1.2.852.852,0,0,1-1.172-.213l-2.189-3.168a.471.471,0,0,1,.118-.657l0,0a17.578,17.578,0,0,1,10.218-3.1,10.974,10.974,0,0,1,7.013,2.146q2.719,2.145,2.716,6.794v14.571a.45.45,0,0,1-.434.466Zm-6.154-8.99V180.66h-4.121q-3.942,0-3.945,2.455a2.258,2.258,0,0,0,.941,1.946,4.569,4.569,0,0,0,2.7.678,4.818,4.818,0,0,0,3.093-1.073,3.479,3.479,0,0,0,1.337-2.864Z" transform="translate(-120.365 -158.266)" fill="#170c3a"/>
                    <path id="Path_739" data-name="Path 739" d="M266.216,164.479a10.024,10.024,0,0,1,7.495,3.356,11.96,11.96,0,0,1,3.2,8.613,12.5,12.5,0,0,1-3.287,8.813,9.966,9.966,0,0,1-7.471,3.551,8.541,8.541,0,0,1-6.95-3.462V188a.463.463,0,0,1-.462.464H253.1a.463.463,0,0,1-.464-.462V156.4a.463.463,0,0,1,.462-.464h5.642a.462.462,0,0,1,.464.462v9.187a.846.846,0,0,0,1.33.7A9.137,9.137,0,0,1,266.216,164.479Zm-7.1,12.212a6.855,6.855,0,0,0,1.6,4.692,4.987,4.987,0,0,0,3.877,1.819,5.332,5.332,0,0,0,3.989-1.819,6.523,6.523,0,0,0,1.706-4.667,7.059,7.059,0,0,0-1.663-4.78,5.1,5.1,0,0,0-3.989-1.925,4.911,4.911,0,0,0-3.92,1.907,7.157,7.157,0,0,0-1.6,4.773Z" transform="translate(-127.614 -155.935)" fill="#170c3a"/>
                    <path id="Path_740" data-name="Path 740" d="M311.986,179a11.679,11.679,0,0,1-3.551,8.638,13.107,13.107,0,0,1-17.846,0,12.305,12.305,0,0,1,0-17.294,13.032,13.032,0,0,1,17.84,0A11.748,11.748,0,0,1,311.986,179Zm-18.323,0a6.734,6.734,0,0,0,1.644,4.71,5.779,5.779,0,0,0,8.169.249q.129-.12.249-.249a6.749,6.749,0,0,0,1.644-4.71,6.849,6.849,0,0,0-1.644-4.74,5.739,5.739,0,0,0-8.109-.309c-.107.1-.21.2-.309.309a6.849,6.849,0,0,0-1.644,4.74Z" transform="translate(-135.001 -158.271)" fill="#170c3a"/>
                    <path id="Path_741" data-name="Path 741" d="M328.111,167.535l3.507,5.488a.468.468,0,0,0,.648.139.458.458,0,0,0,.136-.134l3.631-5.5a.465.465,0,0,1,.389-.207h6.117a.7.7,0,0,1,.57,1.1l-6.95,9.879a.943.943,0,0,0,0,1.092l7.271,10.41a.7.7,0,0,1-.571,1.1H336.6a.484.484,0,0,1-.383-.195l-4.076-5.746a.467.467,0,0,0-.651-.107.487.487,0,0,0-.111.114l-3.952,5.733a.471.471,0,0,1-.383.2h-6.008a.7.7,0,0,1-.577-1.092l7.109-10.381a.955.955,0,0,0,.006-1.072l-6.706-9.949a.7.7,0,0,1,.577-1.092h6.279A.488.488,0,0,1,328.111,167.535Z" transform="translate(-142.15 -158.377)" fill="#170c3a"/>
                  </g>
                  <path id="Path_742" data-name="Path 742" d="M69.675,174.861c-.5-.418-1.022-.836-1.529-1.242l-2.586-2.084,4.046-3.265a4.258,4.258,0,0,0,.707-.705,3.218,3.218,0,0,0-.733-4.609q-1.719-1.39-3.445-2.778l-8.922-7.187a4.217,4.217,0,0,0-5.293-.033c-4.859,3.907-8.818,7.094-12.438,10.021a3.231,3.231,0,0,0-.8,4.494,3.068,3.068,0,0,0,.785.788c.415.337.835.676,1.249,1l2.812,2.265-1.472,1.185c-.868.7-1.755,1.417-2.61,2.112a3.213,3.213,0,0,0-.063,5.17c.393.333.8.661,1.235,1.008l3.391,2.732c2.582,2.08,5.251,4.228,7.87,6.33a4.176,4.176,0,0,0,2.625.973,4.583,4.583,0,0,0,1.988-.492,5.491,5.491,0,0,0,1.051-.729l2.072-1.675c3.311-2.66,6.731-5.412,10.068-8.12A3.3,3.3,0,0,0,71,177.449,3.4,3.4,0,0,0,69.675,174.861Zm-16.916-10.6a8.516,8.516,0,0,0-1.932,1.384c-.228.2-.47.4-.712.59-.913.713-1.826,1.453-2.721,2.175l-.311.252q-.382.306-.763.617l-1.575-1.27c-.964-.776-1.94-1.567-2.948-2.39l10.962-8.84Zm.6,3.855c.241-.2.487-.4.744-.6a.652.652,0,0,1,.816-.026c1.26,1,2.532,2.029,3.778,3.034l1.255,1.014q-2.157,1.742-4.326,3.484l-.572.463-.028.026a.713.713,0,0,1-.993-.02q-2.4-1.925-4.794-3.858l-.12-.1Zm2.961,10.706.065-.042a9.948,9.948,0,0,0,1.007-.679c1.214-.966,2.438-1.953,3.639-2.917l1.723-1.39,4.523,3.643.021.016a.274.274,0,0,0-.032.024L56.324,186.3Zm3.335-12.053-.237-.191c-.72-.583-1.46-1.178-2.21-1.764a5.4,5.4,0,0,0-.779-.474c-.043-.024-.085-.046-.128-.068-.007-2.486-.007-4.944-.007-7.518l9.981,8.044,1.018.816c-.468.383-.94.762-1.4,1.132l-3.137,2.525-2.171-1.749C60.276,167.279,59.965,167.025,59.658,166.773ZM46.318,173.79l1.026.826c1.427,1.155,2.9,2.345,4.37,3.5a9.106,9.106,0,0,0,.979.653l.069.041v7.474l-10.98-8.843q2.006-1.621,4.019-3.236Z" transform="translate(-38.101 -152.04)" fill="#170c3a"/>
                </g>
              </g>
            </g>
          </g>
        </g>
      </g>
    </g>
  </g>
</svg>
