<svg xmlns="http://www.w3.org/2000/svg" xmlns:xlink="http://www.w3.org/1999/xlink" width="131.4" height="44.691" viewBox="0 0 131.4 44.691">
  <defs>
    <linearGradient id="linear-gradient" x1="-0.155" y1="0.183" x2="0.511" y2="0.414" gradientUnits="objectBoundingBox">
      <stop offset="0" stop-color="#bb20d2"/>
      <stop offset="1" stop-color="#291d6d"/>
    </linearGradient>
    <linearGradient id="linear-gradient-2" x1="-0.479" y1="0.176" x2="1.007" y2="0.933" xlink:href="#linear-gradient"/>
    <linearGradient id="linear-gradient-3" x1="-1.707" y1="0.83" x2="0.77" y2="0.457" xlink:href="#linear-gradient"/>
  </defs>
  <g id="Grupo_237" data-name="Grupo 237" transform="translate(-405 -24.695)">
    <g id="logo" transform="translate(405 24.695)">
      <g id="Grupo_167" data-name="Grupo 167" transform="translate(48.272 3.677)">
        <path id="Caminho_294" data-name="Caminho 294" d="M260.4,21.233a3.533,3.533,0,1,1,3.533,3.533A3.588,3.588,0,0,1,260.4,21.233Z" transform="translate(-184.339 -12.925)" fill="#fff"/>
        <g id="Grupo_166" data-name="Grupo 166">
          <path id="Caminho_295" data-name="Caminho 295" d="M194.6,16.676V40.741h5.873V7.7c-1.623,1.337-5.013,5.682-5.777,8.308A3.224,3.224,0,0,0,194.6,16.676Z" transform="translate(-149.956 -7.7)" fill="#fff"/>
          <path id="Caminho_296" data-name="Caminho 296" d="M119.148,36.521a9.933,9.933,0,0,1-3.39-.621L111.7,48.314,107.641,36a9.264,9.264,0,0,1-6.541-.048l7.21,19.529h6.637L122.157,36A8.643,8.643,0,0,1,119.148,36.521Z" transform="translate(-101.1 -22.435)" fill="#fff"/>
          <path id="Caminho_297" data-name="Caminho 297" d="M164.752,36.625a9.858,9.858,0,0,1-2.96-.477v10.6c0,2.769-1.48,4.011-3.629,4.011a3.236,3.236,0,0,1-3.39-3.581V36.1a9.407,9.407,0,0,1-3.1.525,8.847,8.847,0,0,1-2.769-.43V48.085c0,5.3,3.39,8.117,7.305,8.117a6.713,6.713,0,0,0,5.586-2.387v1.862h5.873V36.2A10,10,0,0,1,164.752,36.625Z" transform="translate(-126.077 -22.54)" fill="#fff"/>
          <path id="Caminho_298" data-name="Caminho 298" d="M225,35a7.35,7.35,0,0,0-5.825,2.387V35.621a9.793,9.793,0,0,1-2.913.477,8.747,8.747,0,0,1-2.96-.477V62.98h5.873V53.287A7.35,7.35,0,0,0,225,55.675c5.109,0,9.358-4.488,9.358-10.361S230.107,35,225,35ZM223.8,50.088a4.487,4.487,0,0,1-4.679-4.775,4.68,4.68,0,1,1,9.358,0A4.461,4.461,0,0,1,223.8,50.088Z" transform="translate(-159.728 -21.965)" fill="#fff"/>
          <path id="Caminho_299" data-name="Caminho 299" d="M264.56,36.677a8.942,8.942,0,0,1-2.96-.477V55.633h5.921V36.2A8.558,8.558,0,0,1,264.56,36.677Z" transform="translate(-184.966 -22.592)" fill="#fff"/>
        </g>
      </g>
      <g id="Grupo_168" data-name="Grupo 168">
        <path id="Caminho_300" data-name="Caminho 300" d="M20.388,41.437,0,20.762S12.8,6.1,28.935,3c-.286,7.5,3.677,10.982,3.677,10.982A35.807,35.807,0,0,0,20.388,41.437Z" transform="translate(0 -1.568)" fill="url(#linear-gradient)"/>
        <path id="Caminho_301" data-name="Caminho 301" d="M38.752,39.869s7.783-10.313,0-20.484C30.635,8.738,38.752,0,38.752,0S43.1,12.176,62.482,16.664a67.548,67.548,0,0,0-23.73,23.205" transform="translate(-18.364)" fill="url(#linear-gradient-2)"/>
        <path id="Caminho_302" data-name="Caminho 302" d="M32.981,12s-8.547,18,3.056,34.092c0,0,7.783-10.313,0-20.484-4.059-5.3-4.059-10.075-3.056-13.608" transform="translate(-15.649 -6.27)" fill="url(#linear-gradient-3)"/>
      </g>
    </g>
  </g>
</svg>
